<svg width="64" height="65" viewBox="0 0 64 65" fill="none" xmlns="http://www.w3.org/2000/svg">
<path d="M22.5827 51.3138C22.24 51.3138 21.9145 51.2309 21.606 51.0651C21.2976 50.8994 21.0642 50.6614 20.906 50.3511L16.0887 41.6558H19.7127L22.2293 46.3738H27.5387V44.5278H23.34L20.824 39.8098H15.06L11.54 33.6045C11.4511 33.4458 11.3836 33.2862 11.3373 33.1258C11.2916 32.9649 11.2687 32.8054 11.2687 32.6471C11.2687 32.5742 11.3591 32.2438 11.54 31.6558L15.06 25.4505H20.824L23.34 20.7325H27.5387V18.8865H22.2293L19.7127 23.6045H16.0887L20.906 14.9431C21.0642 14.6329 21.2976 14.3949 21.606 14.2291C21.9145 14.0634 22.24 13.9805 22.5827 13.9805H29.1453C29.6911 13.9805 30.1525 14.1631 30.5293 14.5285C30.9058 14.8938 31.094 15.3607 31.094 15.9291V25.8611H26.5127L24.6667 27.7071H31.094V35.1945H25.6373L23.2887 30.5278H18.2053L16.3587 32.3738H22.1233L24.482 37.0405H31.094V49.3651C31.094 49.9336 30.9058 50.4005 30.5293 50.7658C30.1525 51.1311 29.6911 51.3138 29.1453 51.3138H22.5827ZM34.8887 51.3138C34.3202 51.3138 33.8533 51.1311 33.488 50.7658C33.1227 50.4005 32.94 49.9336 32.94 49.3651V37.0405H39.518L41.8767 32.3738H47.6413L45.7947 30.5278H40.7113L38.3453 35.1945H32.94V27.7071H39.3333L37.4873 25.8611H32.94V15.9291C32.94 15.3607 33.1227 14.8938 33.488 14.5285C33.8533 14.1631 34.3202 13.9805 34.8887 13.9805H41.4173C41.76 13.9805 42.0856 14.0634 42.394 14.2291C42.7025 14.3949 42.9358 14.6329 43.094 14.9431L47.9113 23.6045H44.2873L41.7707 18.8865H36.4613V20.7325H40.66L43.1247 25.4505H48.94L52.46 31.6558C52.5489 31.8371 52.6165 32.008 52.6627 32.1685C52.7085 32.3294 52.7313 32.4889 52.7313 32.6471C52.7313 32.72 52.6409 33.0391 52.46 33.6045L48.94 39.8098H43.1247L40.66 44.5278H36.4613V46.3738H41.7707L44.2873 41.6558H47.9113L43.094 50.3511C42.9358 50.6614 42.7025 50.8994 42.394 51.0651C42.0856 51.2309 41.76 51.3138 41.4173 51.3138H34.8887Z" fill="#999999" style="fill:#999999;fill:color(display-p3 0.6000 0.6000 0.6000);fill-opacity:1;"/>
</svg>
