<svg width="64" height="65" viewBox="0 0 64 65" fill="none" xmlns="http://www.w3.org/2000/svg">
<path d="M41.3334 51.9584L32.0514 42.6764L33.6687 41.0591L41.3334 48.7238L56.7727 33.2844L58.39 34.9018L41.3334 51.9584ZM53.3334 27.0438H51.0767V15.2111C51.0767 14.8009 50.9058 14.4249 50.564 14.0831C50.2222 13.7413 49.8462 13.5704 49.436 13.5704H43.4874V18.9038H20.5127V13.5704H14.564C14.1538 13.5704 13.7778 13.7413 13.436 14.0831C13.0942 14.4249 12.9234 14.8009 12.9234 15.2111V50.0831C12.9234 50.4933 13.0942 50.8693 13.436 51.2111C13.7778 51.5529 14.1538 51.7238 14.564 51.7238H29.1387V53.9804H14.564C13.4645 53.9804 12.54 53.6058 11.7907 52.8564C11.0414 52.1071 10.6667 51.1827 10.6667 50.0831V15.2111C10.6667 14.1115 11.0414 13.1871 11.7907 12.4378C12.54 11.6884 13.4645 11.3138 14.564 11.3138H27.6634C27.8398 10.2711 28.3305 9.3951 29.1354 8.68576C29.9398 7.97598 30.8947 7.62109 32 7.62109C33.1236 7.62109 34.084 7.97598 34.8813 8.68576C35.6782 9.3951 36.1651 10.2711 36.342 11.3138H49.436C50.5356 11.3138 51.46 11.6884 52.2094 12.4378C52.9587 13.1871 53.3334 14.1115 53.3334 15.2111V27.0438ZM32 14.1858C32.6187 14.1858 33.1325 13.9813 33.5414 13.5724C33.9498 13.164 34.154 12.6504 34.154 12.0318C34.154 11.4131 33.9498 10.8993 33.5414 10.4904C33.1325 10.082 32.6187 9.87776 32 9.87776C31.3814 9.87776 30.8676 10.082 30.4587 10.4904C30.0502 10.8993 29.846 11.4131 29.846 12.0318C29.846 12.6504 30.0502 13.164 30.4587 13.5724C30.8676 13.9813 31.3814 14.1858 32 14.1858Z" fill="#999999" style="fill:#999999;fill:color(display-p3 0.6000 0.6000 0.6000);fill-opacity:1;"/>
</svg>
