<svg width="64" height="65" viewBox="0 0 64 65" fill="none" xmlns="http://www.w3.org/2000/svg">
<path d="M30.872 53.8217V33.281L12.9233 22.8997V42.517C12.9233 42.7908 12.9916 43.0473 13.128 43.2864C13.2649 43.5255 13.47 43.7306 13.7433 43.9017L30.872 53.8217ZM33.128 53.8217L50.2567 43.9017C50.53 43.7306 50.7351 43.5255 50.872 43.2864C51.0084 43.0473 51.0767 42.7908 51.0767 42.517V22.8897L33.128 33.2737V53.8217ZM32 31.3784L49.7387 21.0864L32.8207 11.2997C32.5469 11.1517 32.2733 11.0777 32 11.0777C31.7267 11.0777 31.4531 11.1517 31.1793 11.2997L14.2513 21.0864L32 31.3784ZM12.6153 45.871C11.9913 45.5155 11.5107 45.0342 11.1733 44.427C10.8356 43.8204 10.6667 43.1742 10.6667 42.4884V22.8057C10.6667 22.1199 10.8356 21.4737 11.1733 20.867C11.5107 20.2599 11.9913 19.7786 12.6153 19.423L30.0513 9.35305C30.6776 9.00994 31.3296 8.83838 32.0073 8.83838C32.6851 8.83838 33.3322 9.00994 33.9487 9.35305L51.3847 19.423C52.0087 19.7786 52.4893 20.2599 52.8267 20.867C53.1644 21.4737 53.3333 22.1199 53.3333 22.8057V42.4884C53.3333 43.1742 53.1644 43.8204 52.8267 44.427C52.4893 45.0342 52.0087 45.5155 51.3847 45.871L33.9487 55.9411C33.3224 56.2842 32.6704 56.4557 31.9927 56.4557C31.3149 56.4557 30.6678 56.2842 30.0513 55.9411L12.6153 45.871Z" fill="#999999" style="fill:#999999;fill:color(display-p3 0.6000 0.6000 0.6000);fill-opacity:1;"/>
</svg>
