<svg width="64" height="65" viewBox="0 0 64 65" fill="none" xmlns="http://www.w3.org/2000/svg">
<path d="M32 56.5444C26.636 54.9546 22.1838 51.6935 18.6433 46.7611C15.1033 41.8282 13.3333 36.2802 13.3333 30.1171V15.8264L32 8.85242L50.6667 15.8264V30.1171C50.6667 36.2802 48.8967 41.8282 45.3567 46.7611C41.8162 51.6935 37.364 54.9546 32 56.5444ZM32 54.1784C36.4182 52.7655 40.11 50.0582 43.0753 46.0564C46.0407 42.0546 47.7711 37.5849 48.2667 32.6471H32V11.2884L15.59 17.3771V30.1171C15.59 30.5673 15.5973 30.976 15.612 31.3431C15.6267 31.7097 15.6671 32.1444 15.7333 32.6471H32V54.1784Z" fill="#999999" style="fill:#999999;fill:color(display-p3 0.6000 0.6000 0.6000);fill-opacity:1;"/>
</svg>
