<svg width="40" height="41" viewBox="0 0 40 41" fill="none" xmlns="http://www.w3.org/2000/svg">
<path d="M8.07709 16.7293H31.9229V11.0884C31.9229 10.832 31.8161 10.5969 31.6025 10.383C31.3889 10.1694 31.1539 10.0626 30.8975 10.0626H9.10251C8.84612 10.0626 8.61112 10.1694 8.3975 10.383C8.18389 10.5969 8.07709 10.832 8.07709 11.0884V16.7293ZM9.10251 35.5755C8.41973 35.5755 7.84306 35.3402 7.37251 34.8697C6.90195 34.3991 6.66667 33.8224 6.66667 33.1397V11.0884C6.66667 10.4056 6.90195 9.82897 7.37251 9.35842C7.84306 8.88786 8.41973 8.65258 9.10251 8.65258H12.3825V5.19092H13.9742V8.65258H26.1538V5.19092H27.6388V8.65258H30.8975C31.5803 8.65258 32.1569 8.88786 32.6275 9.35842C33.0981 9.82897 33.3333 10.4056 33.3333 11.0884V20.8672C33.1086 20.7844 32.876 20.7218 32.6354 20.6793C32.3949 20.637 32.1574 20.5956 31.9229 20.5551V18.1397H8.07709V33.1397C8.07709 33.3961 8.18389 33.6311 8.3975 33.8447C8.61112 34.0583 8.84612 34.1651 9.10251 34.1651H21.1325C21.2158 34.4273 21.3186 34.6731 21.4408 34.9026C21.5628 35.1318 21.6861 35.3561 21.8108 35.5755H9.10251ZM30.7863 37.2422C28.964 37.2422 27.4217 36.6108 26.1592 35.348C24.8964 34.0855 24.265 32.5431 24.265 30.7209C24.265 28.8987 24.8967 27.3562 26.16 26.0934C27.4233 24.8306 28.962 24.1993 30.7758 24.1993C32.605 24.1993 34.151 24.8311 35.4138 26.0947C36.6763 27.358 37.3075 28.8965 37.3075 30.7101C37.3075 32.5395 36.6763 34.0855 35.4138 35.348C34.151 36.6108 32.6085 37.2422 30.7863 37.2422ZM33.4363 34.4613L34.345 33.5509L31.3163 30.5222V25.9838H30.0404V31.0263L33.4363 34.4613Z" fill="white" style="fill:white;fill-opacity:1;"/>
</svg>
