<svg width="40" height="41" viewBox="0 0 40 41" fill="none" xmlns="http://www.w3.org/2000/svg">
<path d="M26.6666 29.1653C29.0561 29.1653 31.0851 28.3268 32.7537 26.6499C34.4221 24.9726 35.2562 22.9443 35.2562 20.5648C35.2562 18.1854 34.4221 16.1607 32.7537 14.4907C31.0851 12.821 29.0561 11.9861 26.6666 11.9861C25.5739 11.9861 24.5454 12.1782 23.5812 12.5624C22.6171 12.9465 21.7623 13.4762 21.0171 14.1515C21.7443 15.0249 22.3122 16.0067 22.7208 17.0969C23.1291 18.1872 23.3333 19.3468 23.3333 20.5757C23.3333 21.8046 23.1291 22.9642 22.7208 24.0544C22.3122 25.1447 21.7443 26.1265 21.0171 26.9999C21.7623 27.6751 22.6171 28.2049 23.5812 28.589C24.5454 28.9732 25.5739 29.1653 26.6666 29.1653ZM20 25.9665C20.6089 25.241 21.0816 24.4173 21.4183 23.4957C21.7547 22.574 21.9229 21.5994 21.9229 20.5719C21.9229 19.5444 21.7547 18.5711 21.4183 17.6519C21.0816 16.7328 20.6089 15.9104 20 15.1849C19.3911 15.9104 18.9183 16.734 18.5816 17.6557C18.2453 18.5773 18.0771 19.5519 18.0771 20.5794C18.0771 21.6069 18.2453 22.5803 18.5816 23.4994C18.9183 24.4186 19.3911 25.241 20 25.9665ZM13.3333 29.1653C14.4261 29.1653 15.4546 28.9732 16.4187 28.589C17.3829 28.2049 18.2376 27.6751 18.9829 26.9999C18.2557 26.1265 17.6878 25.1447 17.2791 24.0544C16.8708 22.9642 16.6666 21.8046 16.6666 20.5757C16.6666 19.3468 16.8708 18.1872 17.2791 17.0969C17.6878 16.0067 18.2557 15.0249 18.9829 14.1515C18.2376 13.4762 17.3829 12.9465 16.4187 12.5624C15.4546 12.1782 14.4261 11.9861 13.3333 11.9861C10.9569 11.9861 8.93123 12.82 7.25623 14.4878C5.58123 16.1558 4.74373 18.1796 4.74373 20.559C4.74373 22.9385 5.58123 24.9678 7.25623 26.6469C8.93123 28.3258 10.9569 29.1653 13.3333 29.1653ZM13.3333 30.5757C10.5533 30.5757 8.19165 29.604 6.24831 27.6607C4.30498 25.7174 3.33331 23.3557 3.33331 20.5757C3.33331 17.7957 4.30498 15.434 6.24831 13.4907C8.19165 11.5474 10.5533 10.5757 13.3333 10.5757C14.6261 10.5757 15.8403 10.8043 16.9758 11.2615C18.1116 11.7187 19.1197 12.3555 20 13.1719C20.8803 12.3555 21.8883 11.7187 23.0241 11.2615C24.1597 10.8043 25.3739 10.5757 26.6666 10.5757C29.4466 10.5757 31.8083 11.5474 33.7516 13.4907C35.695 15.434 36.6666 17.7957 36.6666 20.5757C36.6666 23.3557 35.695 25.7174 33.7516 27.6607C31.8083 29.604 29.4466 30.5757 26.6666 30.5757C25.3739 30.5757 24.1597 30.3471 23.0241 29.8899C21.8883 29.4326 20.8803 28.7958 20 27.9794C19.1197 28.7958 18.1116 29.4326 16.9758 29.8899C15.8403 30.3471 14.6261 30.5757 13.3333 30.5757Z" fill="white" style="fill:white;fill-opacity:1;"/>
</svg>
