<svg width="40" height="41" viewBox="0 0 40 41" fill="none" xmlns="http://www.w3.org/2000/svg">
<path d="M12.2612 35.7614C11.5882 35.7614 11.0235 35.5291 10.5671 35.0647C10.1107 34.6 9.88248 34.0283 9.88248 33.3497C9.88248 32.6708 10.1126 32.1011 10.5729 31.6405C11.0329 31.1797 11.5993 30.9493 12.2721 30.9493C12.9446 30.9493 13.5129 31.1816 13.9771 31.6464C14.441 32.1108 14.6729 32.6825 14.6729 33.3614C14.6729 34.0402 14.4407 34.61 13.9762 35.0705C13.5115 35.5311 12.9398 35.7614 12.2612 35.7614ZM27.9021 35.7614C27.2293 35.7614 26.6647 35.5291 26.2083 35.0647C25.7516 34.6 25.5233 34.0283 25.5233 33.3497C25.5233 32.6708 25.7535 32.1011 26.2137 31.6405C26.674 31.1797 27.2404 30.9493 27.9129 30.9493C28.5857 30.9493 29.154 31.1816 29.6179 31.6464C30.0821 32.1108 30.3141 32.6825 30.3141 33.3614C30.3141 34.0402 30.0818 34.61 29.6171 35.0705C29.1526 35.5311 28.581 35.7614 27.9021 35.7614ZM9.66665 9.47927L14.2904 19.1889H25.4425C25.6347 19.1889 25.8091 19.1408 25.9658 19.0447C26.1225 18.9483 26.2471 18.8147 26.3396 18.6439L30.9016 10.3768C31.03 10.1418 31.0407 9.93344 30.9337 9.75177C30.8268 9.5701 30.6451 9.47927 30.3887 9.47927H9.66665ZM8.94665 8.06927H30.6391C31.3636 8.06927 31.9085 8.36566 32.2737 8.95844C32.639 9.55149 32.6561 10.1611 32.325 10.7872L27.6571 19.3034C27.4107 19.7012 27.0962 20.0166 26.7137 20.2497C26.3312 20.4825 25.921 20.5989 25.4829 20.5989H13.5L11.3121 24.6205C11.1554 24.8769 11.1536 25.1547 11.3066 25.4539C11.4597 25.753 11.6965 25.9026 12.0171 25.9026H30.3141V27.3126H12.1387C11.1937 27.3126 10.5022 26.9525 10.0641 26.2322C9.62609 25.5116 9.62317 24.7536 10.0554 23.958L12.69 19.2334L6.4679 6.1526H3.4679V4.74219H7.36956L8.94665 8.06927Z" fill="white" style="fill:white;fill-opacity:1;"/>
</svg>
