<svg width="421" height="23" viewBox="0 0 421 23" fill="none" xmlns="http://www.w3.org/2000/svg">
<path d="M398.983 10.9101H413.241C414.081 10.9101 414.79 10.6212 415.368 10.0436C415.972 9.43963 416.274 8.71754 416.274 7.87729C416.274 7.03704 415.972 6.32808 415.368 5.75041C414.79 5.14648 414.081 4.84452 413.241 4.84452H393.705V21.702H388.979V0.118122L413.241 0.0787354C414.317 0.0787354 415.328 0.288797 416.274 0.70892C417.219 1.10279 418.033 1.6542 418.716 2.36316C419.425 3.07212 419.976 3.89924 420.37 4.84452C420.79 5.7898 421 6.80072 421 7.87729C421 8.95386 420.79 9.96478 420.37 10.9101C419.976 11.8553 419.425 12.6825 418.716 13.3914C418.033 14.0741 417.219 14.6255 416.274 15.0457C415.328 15.4395 414.317 15.6365 413.241 15.6365H410.484L420.764 21.702H411.587L398.195 13.7853C397.854 13.6015 397.631 13.352 397.526 13.0369C397.421 12.6956 397.408 12.3674 397.486 12.0523C397.565 11.7372 397.736 11.4746 397.998 11.2645C398.261 11.0282 398.589 10.9101 398.983 10.9101Z" fill="white" style="fill:white;fill-opacity:1;"/>
<path d="M398.983 10.9101H413.241C414.081 10.9101 414.79 10.6212 415.368 10.0436C415.972 9.43963 416.274 8.71754 416.274 7.87729C416.274 7.03704 415.972 6.32808 415.368 5.75041C414.79 5.14648 414.081 4.84452 413.241 4.84452H393.705V21.702H388.979V0.118122L413.241 0.0787354C414.317 0.0787354 415.328 0.288797 416.274 0.70892C417.219 1.10279 418.033 1.6542 418.716 2.36316C419.425 3.07212 419.976 3.89924 420.37 4.84452C420.79 5.7898 421 6.80072 421 7.87729C421 8.95386 420.79 9.96478 420.37 10.9101C419.976 11.8553 419.425 12.6825 418.716 13.3914C418.033 14.0741 417.219 14.6255 416.274 15.0457C415.328 15.4395 414.317 15.6365 413.241 15.6365H410.484L420.764 21.702H411.587L398.195 13.7853C397.854 13.6015 397.631 13.352 397.526 13.0369C397.421 12.6956 397.408 12.3674 397.486 12.0523C397.565 11.7372 397.736 11.4746 397.998 11.2645C398.261 11.0282 398.589 10.9101 398.983 10.9101Z" fill="white" style="fill:white;fill-opacity:1;"/>
<path d="M387.499 16.9756V21.702H363.237C362.16 21.702 361.149 21.5051 360.204 21.1112C359.259 20.6911 358.432 20.1397 357.723 19.457C357.04 18.748 356.489 17.9209 356.068 16.9756C355.675 16.0303 355.478 15.0194 355.478 13.9428V7.87729C355.478 6.80072 355.675 5.7898 356.068 4.84452C356.489 3.89924 357.04 3.07212 357.723 2.36316C358.432 1.6542 359.259 1.10279 360.204 0.70892C361.149 0.288797 362.16 0.0787354 363.237 0.0787354L387.499 0.118122V4.84452H363.237C362.397 4.84452 361.674 5.14648 361.071 5.75041C360.493 6.32808 360.204 7.03704 360.204 7.87729V8.50748H386.041V13.2733H360.204V13.9428C360.204 14.7831 360.493 15.5052 361.071 16.1091C361.674 16.6868 362.397 16.9756 363.237 16.9756H387.499Z" fill="white" style="fill:white;fill-opacity:1;"/>
<path d="M387.499 16.9756V21.702H363.237C362.16 21.702 361.149 21.5051 360.204 21.1112C359.259 20.6911 358.432 20.1397 357.723 19.457C357.04 18.748 356.489 17.9209 356.068 16.9756C355.675 16.0303 355.478 15.0194 355.478 13.9428V7.87729C355.478 6.80072 355.675 5.7898 356.068 4.84452C356.489 3.89924 357.04 3.07212 357.723 2.36316C358.432 1.6542 359.259 1.10279 360.204 0.70892C361.149 0.288797 362.16 0.0787354 363.237 0.0787354L387.499 0.118122V4.84452H363.237C362.397 4.84452 361.674 5.14648 361.071 5.75041C360.493 6.32808 360.204 7.03704 360.204 7.87729V8.50748H386.041V13.2733H360.204V13.9428C360.204 14.7831 360.493 15.5052 361.071 16.1091C361.674 16.6868 362.397 16.9756 363.237 16.9756H387.499Z" fill="white" style="fill:white;fill-opacity:1;"/>
<path d="M310.716 0.11792L320.287 17.1723C320.602 17.6975 321.062 17.9601 321.666 17.9601C322.27 17.9601 322.729 17.6975 323.044 17.1723L327.14 9.84642L321.666 0.11792H327.022L329.819 5.08064L332.615 0.11792H337.972L332.497 9.84642L336.633 17.1723C336.79 17.4349 336.987 17.6319 337.223 17.7631C337.46 17.8944 337.709 17.9601 337.972 17.9601C338.234 17.9601 338.484 17.8944 338.72 17.7631C338.983 17.6319 339.193 17.4349 339.35 17.1723L348.921 0.11792H354.278L343.407 19.4568C342.803 20.5333 342.015 21.3342 341.044 21.8594C340.072 22.3845 339.048 22.6471 337.972 22.6471C336.921 22.6471 335.897 22.3845 334.9 21.8594C333.928 21.3342 333.14 20.5333 332.536 19.4568L329.819 14.6122L327.101 19.4568C326.497 20.5333 325.696 21.3342 324.698 21.8594C323.727 22.3845 322.703 22.6471 321.626 22.6471C320.576 22.6471 319.552 22.3845 318.554 21.8594C317.583 21.3342 316.808 20.5333 316.23 19.4568L305.36 0.11792H310.716Z" fill="white" style="fill:white;fill-opacity:1;"/>
<path d="M310.716 0.11792L320.287 17.1723C320.602 17.6975 321.062 17.9601 321.666 17.9601C322.27 17.9601 322.729 17.6975 323.044 17.1723L327.14 9.84642L321.666 0.11792H327.022L329.819 5.08064L332.615 0.11792H337.972L332.497 9.84642L336.633 17.1723C336.79 17.4349 336.987 17.6319 337.223 17.7631C337.46 17.8944 337.709 17.9601 337.972 17.9601C338.234 17.9601 338.484 17.8944 338.72 17.7631C338.983 17.6319 339.193 17.4349 339.35 17.1723L348.921 0.11792H354.278L343.407 19.4568C342.803 20.5333 342.015 21.3342 341.044 21.8594C340.072 22.3845 339.048 22.6471 337.972 22.6471C336.921 22.6471 335.897 22.3845 334.9 21.8594C333.928 21.3342 333.14 20.5333 332.536 19.4568L329.819 14.6122L327.101 19.4568C326.497 20.5333 325.696 21.3342 324.698 21.8594C323.727 22.3845 322.703 22.6471 321.626 22.6471C320.576 22.6471 319.552 22.3845 318.554 21.8594C317.583 21.3342 316.808 20.5333 316.23 19.4568L305.36 0.11792H310.716Z" fill="white" style="fill:white;fill-opacity:1;"/>
<path d="M277.572 21.7018C276.076 21.7018 274.671 21.4261 273.358 20.8747C272.071 20.297 270.929 19.5224 269.931 18.5509C268.96 17.5531 268.185 16.4109 267.608 15.1242C267.056 13.8113 266.781 12.4066 266.781 10.9099C266.781 9.41317 267.056 8.00838 267.608 6.69549C268.185 5.3826 268.96 4.24039 269.931 3.26885C270.929 2.29731 272.071 1.53584 273.358 0.984426C274.671 0.406755 276.076 0.11792 277.572 0.11792H293.681C295.178 0.11792 296.583 0.406755 297.896 0.984426C299.209 1.53584 300.351 2.29731 301.322 3.26885C302.32 4.24039 303.095 5.3826 303.646 6.69549C304.224 8.00838 304.513 9.41317 304.513 10.9099C304.513 12.4066 304.224 13.8113 303.646 15.1242C303.095 16.4109 302.32 17.5531 301.322 18.5509C300.351 19.5224 299.209 20.297 297.896 20.8747C296.583 21.4261 295.178 21.7018 293.681 21.7018H277.572ZM293.681 16.9754C294.522 16.9754 295.309 16.8179 296.045 16.5028C296.78 16.1877 297.423 15.7544 297.975 15.203C298.526 14.6516 298.959 14.0083 299.274 13.2731C299.589 12.5378 299.747 11.7501 299.747 10.9099C299.747 10.0696 299.589 9.28188 299.274 8.54666C298.959 7.81144 298.526 7.16813 297.975 6.61671C297.423 6.0653 296.78 5.63205 296.045 5.31696C295.309 5.00186 294.522 4.84432 293.681 4.84432H277.572C276.732 4.84432 275.944 5.00186 275.209 5.31696C274.474 5.63205 273.831 6.0653 273.279 6.61671C272.728 7.16813 272.295 7.81144 271.98 8.54666C271.664 9.28188 271.507 10.0696 271.507 10.9099C271.507 11.7501 271.664 12.5378 271.98 13.2731C272.295 14.0083 272.728 14.6516 273.279 15.203C273.831 15.7544 274.474 16.1877 275.209 16.5028C275.944 16.8179 276.732 16.9754 277.572 16.9754H293.681Z" fill="white" style="fill:white;fill-opacity:1;"/>
<path d="M277.572 21.7018C276.076 21.7018 274.671 21.4261 273.358 20.8747C272.071 20.297 270.929 19.5224 269.931 18.5509C268.96 17.5531 268.185 16.4109 267.608 15.1242C267.056 13.8113 266.781 12.4066 266.781 10.9099C266.781 9.41317 267.056 8.00838 267.608 6.69549C268.185 5.3826 268.96 4.24039 269.931 3.26885C270.929 2.29731 272.071 1.53584 273.358 0.984426C274.671 0.406755 276.076 0.11792 277.572 0.11792H293.681C295.178 0.11792 296.583 0.406755 297.896 0.984426C299.209 1.53584 300.351 2.29731 301.322 3.26885C302.32 4.24039 303.095 5.3826 303.646 6.69549C304.224 8.00838 304.513 9.41317 304.513 10.9099C304.513 12.4066 304.224 13.8113 303.646 15.1242C303.095 16.4109 302.32 17.5531 301.322 18.5509C300.351 19.5224 299.209 20.297 297.896 20.8747C296.583 21.4261 295.178 21.7018 293.681 21.7018H277.572ZM293.681 16.9754C294.522 16.9754 295.309 16.8179 296.045 16.5028C296.78 16.1877 297.423 15.7544 297.975 15.203C298.526 14.6516 298.959 14.0083 299.274 13.2731C299.589 12.5378 299.747 11.7501 299.747 10.9099C299.747 10.0696 299.589 9.28188 299.274 8.54666C298.959 7.81144 298.526 7.16813 297.975 6.61671C297.423 6.0653 296.78 5.63205 296.045 5.31696C295.309 5.00186 294.522 4.84432 293.681 4.84432H277.572C276.732 4.84432 275.944 5.00186 275.209 5.31696C274.474 5.63205 273.831 6.0653 273.279 6.61671C272.728 7.16813 272.295 7.81144 271.98 8.54666C271.664 9.28188 271.507 10.0696 271.507 10.9099C271.507 11.7501 271.664 12.5378 271.98 13.2731C272.295 14.0083 272.728 14.6516 273.279 15.203C273.831 15.7544 274.474 16.1877 275.209 16.5028C275.944 16.8179 276.732 16.9754 277.572 16.9754H293.681Z" fill="white" style="fill:white;fill-opacity:1;"/>
<path d="M236.972 0.11792H264.936V4.84432H253.554V21.7018H248.355V4.84432H236.972V0.11792Z" fill="white" style="fill:white;fill-opacity:1;"/>
<path d="M236.972 0.11792H264.936V4.84432H253.554V21.7018H248.355V4.84432H236.972V0.11792Z" fill="white" style="fill:white;fill-opacity:1;"/>
<path d="M214.69 16.9754V21.7018H196.729C195.653 21.7018 194.642 21.5049 193.697 21.111C192.751 20.6909 191.924 20.1395 191.215 19.4568C190.533 18.7478 189.981 17.9207 189.561 16.9754C189.167 16.0301 188.97 15.0192 188.97 13.9426V0.11792H193.697V13.9426C193.697 14.7829 193.985 15.505 194.563 16.1089C195.167 16.6866 195.889 16.9754 196.729 16.9754H214.69Z" fill="white" style="fill:white;fill-opacity:1;"/>
<path d="M214.69 16.9754V21.7018H196.729C195.653 21.7018 194.642 21.5049 193.697 21.111C192.751 20.6909 191.924 20.1395 191.215 19.4568C190.533 18.7478 189.981 17.9207 189.561 16.9754C189.167 16.0301 188.97 15.0192 188.97 13.9426V0.11792H193.697V13.9426C193.697 14.7829 193.985 15.505 194.563 16.1089C195.167 16.6866 195.889 16.9754 196.729 16.9754H214.69Z" fill="white" style="fill:white;fill-opacity:1;"/>
<path d="M163.844 -6.10352e-05H178.889C179.966 -6.10352e-05 180.977 0.21 181.922 0.630124C182.867 1.02399 183.681 1.5754 184.364 2.28436C185.073 2.99332 185.624 3.82044 186.018 4.76572C186.438 5.711 186.648 6.72192 186.648 7.79849V21.702H181.922V16.5029H160.811V21.702H156.084V7.79849C156.084 6.72192 156.281 5.711 156.675 4.76572C157.095 3.82044 157.647 2.99332 158.329 2.28436C159.038 1.5754 159.866 1.02399 160.811 0.630124C161.756 0.21 162.767 -6.10352e-05 163.844 -6.10352e-05ZM160.811 11.7372H181.922V7.79849C181.922 6.95824 181.62 6.24928 181.016 5.67161C180.438 5.06769 179.729 4.76572 178.889 4.76572H163.844C163.003 4.76572 162.281 5.06769 161.677 5.67161C161.1 6.24928 160.811 6.95824 160.811 7.79849V11.7372Z" fill="white" style="fill:white;fill-opacity:1;"/>
<path d="M163.844 -6.10352e-05H178.889C179.966 -6.10352e-05 180.977 0.21 181.922 0.630124C182.867 1.02399 183.681 1.5754 184.364 2.28436C185.073 2.99332 185.624 3.82044 186.018 4.76572C186.438 5.711 186.648 6.72192 186.648 7.79849V21.702H181.922V16.5029H160.811V21.702H156.084V7.79849C156.084 6.72192 156.281 5.711 156.675 4.76572C157.095 3.82044 157.647 2.99332 158.329 2.28436C159.038 1.5754 159.866 1.02399 160.811 0.630124C161.756 0.21 162.767 -6.10352e-05 163.844 -6.10352e-05ZM160.811 11.7372H181.922V7.79849C181.922 6.95824 181.62 6.24928 181.016 5.67161C180.438 5.06769 179.729 4.76572 178.889 4.76572H163.844C163.003 4.76572 162.281 5.06769 161.677 5.67161C161.1 6.24928 160.811 6.95824 160.811 7.79849V11.7372Z" fill="white" style="fill:white;fill-opacity:1;"/>
<path d="M126.236 0.11792H154.2V4.84432H142.818V21.7018H137.619V4.84432H126.236V0.11792Z" fill="white" style="fill:white;fill-opacity:1;"/>
<path d="M126.236 0.11792H154.2V4.84432H142.818V21.7018H137.619V4.84432H126.236V0.11792Z" fill="white" style="fill:white;fill-opacity:1;"/>
<path d="M94.2737 17.015H111.682L103.884 7.32588C103.306 6.59066 102.978 5.80293 102.899 4.96268C102.847 4.12243 102.991 3.34783 103.333 2.63887C103.7 1.90365 104.225 1.29972 104.908 0.827081C105.617 0.328184 106.444 0.0787354 107.389 0.0787354H124.759V4.76575H107.823L115.582 14.4549C116.159 15.1901 116.474 15.9778 116.527 16.8181C116.606 17.6583 116.474 18.446 116.133 19.1813C115.792 19.8902 115.267 20.4941 114.558 20.993C113.875 21.4657 113.061 21.702 112.116 21.702H94.2737V17.015Z" fill="white" style="fill:white;fill-opacity:1;"/>
<path d="M94.2737 17.015H111.682L103.884 7.32588C103.306 6.59066 102.978 5.80293 102.899 4.96268C102.847 4.12243 102.991 3.34783 103.333 2.63887C103.7 1.90365 104.225 1.29972 104.908 0.827081C105.617 0.328184 106.444 0.0787354 107.389 0.0787354H124.759V4.76575H107.823L115.582 14.4549C116.159 15.1901 116.474 15.9778 116.527 16.8181C116.606 17.6583 116.474 18.446 116.133 19.1813C115.792 19.8902 115.267 20.4941 114.558 20.993C113.875 21.4657 113.061 21.702 112.116 21.702H94.2737V17.015Z" fill="white" style="fill:white;fill-opacity:1;"/>
<path d="M80.7184 12.2886C80.1145 12.2886 79.5762 12.2098 79.1036 12.0522C78.6572 11.8947 78.2108 11.5927 77.7645 11.1463L66.6575 0.0393066H73.2744L80.8366 7.60154H85.3266L92.9282 0.0393066H99.5451L88.3988 11.1463C87.9787 11.5927 87.5323 11.8947 87.0596 12.0522C86.587 12.2098 86.0487 12.2886 85.4448 12.2886V21.702H80.7184V12.2886Z" fill="white" style="fill:white;fill-opacity:1;"/>
<path d="M80.7184 12.2886C80.1145 12.2886 79.5762 12.2098 79.1036 12.0522C78.6572 11.8947 78.2108 11.5927 77.7645 11.1463L66.6575 0.0393066H73.2744L80.8366 7.60154H85.3266L92.9282 0.0393066H99.5451L88.3988 11.1463C87.9787 11.5927 87.5323 11.8947 87.0596 12.0522C86.587 12.2098 86.0487 12.2886 85.4448 12.2886V21.702H80.7184V12.2886Z" fill="white" style="fill:white;fill-opacity:1;"/>
<path d="M43.6211 10.9101H57.879C58.7192 10.9101 59.4282 10.6212 60.0058 10.0436C60.6097 9.43963 60.9117 8.71754 60.9117 7.87729C60.9117 7.03704 60.6097 6.32808 60.0058 5.75041C59.4282 5.14648 58.7192 4.84452 57.879 4.84452H38.3433V21.702H33.6169V0.118122L57.879 0.0787354C58.9555 0.0787354 59.9664 0.288797 60.9117 0.70892C61.857 1.10279 62.671 1.6542 63.3537 2.36316C64.0626 3.07212 64.614 3.89924 65.0079 4.84452C65.428 5.7898 65.6381 6.80072 65.6381 7.87729C65.6381 8.95386 65.428 9.96478 65.0079 10.9101C64.614 11.8553 64.0626 12.6825 63.3537 13.3914C62.671 14.0741 61.857 14.6255 60.9117 15.0457C59.9664 15.4395 58.9555 15.6365 57.879 15.6365H55.1219L65.4018 21.702H56.2247L42.8334 13.7853C42.492 13.6015 42.2688 13.352 42.1638 13.0369C42.0588 12.6956 42.0456 12.3674 42.1244 12.0523C42.2032 11.7372 42.3738 11.4746 42.6364 11.2645C42.899 11.0282 43.2272 10.9101 43.6211 10.9101Z" fill="white" style="fill:white;fill-opacity:1;"/>
<path d="M43.6211 10.9101H57.879C58.7192 10.9101 59.4282 10.6212 60.0058 10.0436C60.6097 9.43963 60.9117 8.71754 60.9117 7.87729C60.9117 7.03704 60.6097 6.32808 60.0058 5.75041C59.4282 5.14648 58.7192 4.84452 57.879 4.84452H38.3433V21.702H33.6169V0.118122L57.879 0.0787354C58.9555 0.0787354 59.9664 0.288797 60.9117 0.70892C61.857 1.10279 62.671 1.6542 63.3537 2.36316C64.0626 3.07212 64.614 3.89924 65.0079 4.84452C65.428 5.7898 65.6381 6.80072 65.6381 7.87729C65.6381 8.95386 65.428 9.96478 65.0079 10.9101C64.614 11.8553 64.0626 12.6825 63.3537 13.3914C62.671 14.0741 61.857 14.6255 60.9117 15.0457C59.9664 15.4395 58.9555 15.6365 57.879 15.6365H55.1219L65.4018 21.702H56.2247L42.8334 13.7853C42.492 13.6015 42.2688 13.352 42.1638 13.0369C42.0588 12.6956 42.0456 12.3674 42.1244 12.0523C42.2032 11.7372 42.3738 11.4746 42.6364 11.2645C42.899 11.0282 43.2272 10.9101 43.6211 10.9101Z" fill="white" style="fill:white;fill-opacity:1;"/>
<path d="M32.0211 16.9756V21.702H7.75912C6.68256 21.702 5.67164 21.5051 4.72637 21.1112C3.78109 20.6911 2.95398 20.1397 2.24502 19.457C1.56233 18.748 1.01092 17.9209 0.590796 16.9756C0.196932 16.0303 0 15.0194 0 13.9428V7.87729C0 6.80072 0.196932 5.7898 0.590796 4.84452C1.01092 3.89924 1.56233 3.07212 2.24502 2.36316C2.95398 1.6542 3.78109 1.10279 4.72637 0.70892C5.67164 0.288797 6.68256 0.0787354 7.75912 0.0787354L32.0211 0.118122V4.84452H7.75912C6.91887 4.84452 6.19679 5.14648 5.59287 5.75041C5.0152 6.32808 4.72637 7.03704 4.72637 7.87729V13.9428C4.72637 14.7831 5.0152 15.5052 5.59287 16.1091C6.19679 16.6868 6.91887 16.9756 7.75912 16.9756H32.0211Z" fill="white" style="fill:white;fill-opacity:1;"/>
<path d="M32.0211 16.9756V21.702H7.75912C6.68256 21.702 5.67164 21.5051 4.72637 21.1112C3.78109 20.6911 2.95398 20.1397 2.24502 19.457C1.56233 18.748 1.01092 17.9209 0.590796 16.9756C0.196932 16.0303 0 15.0194 0 13.9428V7.87729C0 6.80072 0.196932 5.7898 0.590796 4.84452C1.01092 3.89924 1.56233 3.07212 2.24502 2.36316C2.95398 1.6542 3.78109 1.10279 4.72637 0.70892C5.67164 0.288797 6.68256 0.0787354 7.75912 0.0787354L32.0211 0.118122V4.84452H7.75912C6.91887 4.84452 6.19679 5.14648 5.59287 5.75041C5.0152 6.32808 4.72637 7.03704 4.72637 7.87729V13.9428C4.72637 14.7831 5.0152 15.5052 5.59287 16.1091C6.19679 16.6868 6.91887 16.9756 7.75912 16.9756H32.0211Z" fill="white" style="fill:white;fill-opacity:1;"/>
</svg>
