<?xml version="1.0" encoding="UTF-8"?>
<svg width="80px" height="80px" viewBox="0 0 80 80" version="1.1" xmlns="http://www.w3.org/2000/svg">
  <g stroke="none" stroke-width="1" fill="none" fill-rule="evenodd">
    <!-- Shield outline -->
    <path d="M40,8 C50,14 60,18 70,18 L70,42 C70,58 56,70 40,76 C24,70 10,58 10,42 L10,18 C20,18 30,14 40,8 Z" stroke="#FF0000" stroke-width="2.5" fill="none"/>
    
    <!-- Inner shield shape -->
    <path d="M40,16 C48,20 56,22 64,22 L64,42 C64,54 52,63 40,68 C28,63 16,54 16,42 L16,22 C24,22 32,20 40,16 Z" stroke="#FF0000" stroke-width="1.5" fill="#FF0000" fill-opacity="0.1"/>
  </g>
</svg>
