<?xml version="1.0" encoding="UTF-8"?>
<svg width="60px" height="60px" viewBox="0 0 60 60" version="1.1" xmlns="http://www.w3.org/2000/svg">
  <g stroke="none" stroke-width="1" fill="none" fill-rule="evenodd">
    <path d="M30,4 C38,8 46,10 54,10 L54,32 C54,43 43,52 30,56 C17,52 6,43 6,32 L6,10 C14,10 22,8 30,4 Z" stroke="#FF0000" stroke-width="3" fill="none"/>
    <path d="M30,10 C36,13 42,14 48,14 L48,30 C48,39 40,46 30,49 C20,46 12,39 12,30 L12,14 C18,14 24,13 30,10 Z" fill="#FF0000" fill-opacity="0.2"/>
  </g>
</svg>
