<?xml version="1.0" encoding="UTF-8"?>
<svg width="80px" height="80px" viewBox="0 0 80 80" version="1.1" xmlns="http://www.w3.org/2000/svg">
  <g stroke="none" stroke-width="1" fill="none" fill-rule="evenodd">
    <!-- Cloud shape -->
    <path d="M20,46 C14,46 8,40 8,34 C8,28 13,22 20,22 C21,22 23,22.5 24,23 C26,18 31,15 36,15 C43,15 49,20 49,28 C49,29 49,30 48.5,31 C49.5,30.5 51,30 52,30 C57,30 62,35 62,40 C62,45 57,50 52,50 L20,46 Z" stroke="#FF0000" stroke-width="2.5" fill="none"/>
    
    <!-- Server base -->
    <rect x="25" y="55" width="30" height="15" stroke="#FF0000" stroke-width="2" rx="2"/>
    
    <!-- Connection lines -->
    <path d="M40,46 L40,55" stroke="#FF0000" stroke-width="2" stroke-linecap="round"/>
    
    <!-- Connection indicators -->
    <circle cx="32" cy="60" r="2" fill="#FF0000"/>
    <circle cx="40" cy="60" r="2" fill="#FF0000"/>
    <circle cx="48" cy="60" r="2" fill="#FF0000"/>
    
    <!-- Network indicators in cloud -->
    <circle cx="20" cy="34" r="2" fill="#FF0000"/>
    <circle cx="28" cy="38" r="2" fill="#FF0000"/>
    <circle cx="36" cy="34" r="2" fill="#FF0000"/>
  </g>
</svg>
