<?xml version="1.0" encoding="UTF-8"?>
<svg width="60px" height="60px" viewBox="0 0 60 60" version="1.1" xmlns="http://www.w3.org/2000/svg">
  <g stroke="none" stroke-width="1" fill="none" fill-rule="evenodd">
    <path d="M14,32 C8.477,32 4,27.523 4,22 C4,16.477 8.477,12 14,12 C15.592,12 17.1,12.385 18.453,13.072 C20.422,8.116 25.072,5 30.5,5 C37.404,5 43,10.596 43,17.5 C43,18.177 42.936,18.84 42.813,19.486 C43.649,19.171 44.556,19 45.5,19 C50.194,19 54,22.806 54,27.5 C54,32.194 50.194,36 45.5,36 L14,36 C14,36 14,34 14,32 Z" stroke="#FF0000" stroke-width="3" fill="none"/>
    <circle cx="14" cy="28" r="2" fill="#FF0000"/>
    <circle cx="20" cy="28" r="2" fill="#FF0000"/>
    <circle cx="26" cy="28" r="2" fill="#FF0000"/>
    <path d="M17,42 L31,42 L31,52 L17,52 Z" stroke="#FF0000" stroke-width="3" fill="none"/>
    <path d="M24,36 L24,42" stroke="#FF0000" stroke-width="3" stroke-linecap="round"/>
    <path d="M31,46 L40,46" stroke="#FF0000" stroke-width="3" stroke-linecap="round"/>
    <path d="M40,40 L40,52" stroke="#FF0000" stroke-width="3" stroke-linecap="round"/>
  </g>
</svg>
