<?xml version="1.0" encoding="UTF-8"?>
<svg width="80px" height="80px" viewBox="0 0 80 80" version="1.1" xmlns="http://www.w3.org/2000/svg">
  <g stroke="none" stroke-width="1" fill="none" fill-rule="evenodd">
    <!-- Gear outer circle -->
    <circle cx="40" cy="40" r="32" stroke="#FF0000" stroke-width="2.5" />
    
    <!-- Gear teeth -->
    <circle cx="40" cy="10" r="3" fill="#FF0000" />
    <circle cx="40" cy="70" r="3" fill="#FF0000" />
    <circle cx="10" cy="40" r="3" fill="#FF0000" />
    <circle cx="70" cy="40" r="3" fill="#FF0000" />
    
    <circle cx="18" cy="18" r="3" fill="#FF0000" />
    <circle cx="62" cy="62" r="3" fill="#FF0000" />
    <circle cx="18" cy="62" r="3" fill="#FF0000" />
    <circle cx="62" cy="18" r="3" fill="#FF0000" />
    
    <!-- Center brain pattern -->
    <circle cx="40" cy="40" r="20" stroke="#FF0000" stroke-width="2" />
    <path d="M30,40 C30,34.477 34.477,30 40,30 C45.523,30 50,34.477 50,40" stroke="#FF0000" stroke-width="2" />
    <path d="M34,46 C34,43.791 36.791,41 40,41 C43.209,41 46,43.791 46,46" stroke="#FF0000" stroke-width="2" />
    <path d="M40,30 L40,25" stroke="#FF0000" stroke-width="2" />
    <path d="M32,34 L29,29" stroke="#FF0000" stroke-width="2" />
    <path d="M48,34 L51,29" stroke="#FF0000" stroke-width="2" />
  </g>
</svg>
