<?xml version="1.0" encoding="UTF-8"?>
<svg width="60px" height="60px" viewBox="0 0 60 60" version="1.1" xmlns="http://www.w3.org/2000/svg">
  <g stroke="none" stroke-width="1" fill="none" fill-rule="evenodd">
    <path d="M14,4 L40,4 L50,14 L50,56 L14,56 L14,4 Z" stroke="#FF0000" stroke-width="3" fill="none"/>
    <path d="M40,4 L40,14 L50,14" stroke="#FF0000" stroke-width="3" fill="none"/>
    <path d="M36,30 C36,32.2091 34.2091,34 32,34 C29.7909,34 28,32.2091 28,30 C28,27.7909 29.7909,26 32,26 C34.2091,26 36,27.7909 36,30 Z" fill="#FF0000"/>
    <path d="M32,34 L29,38" stroke="#FF0000" stroke-width="3" stroke-linecap="round"/>
    <path d="M20,24 L26,24" stroke="#FF0000" stroke-width="3" stroke-linecap="round"/>
    <path d="M20,30 L26,30" stroke="#FF0000" stroke-width="3" stroke-linecap="round"/>
    <path d="M20,36 L26,36" stroke="#FF0000" stroke-width="3" stroke-linecap="round"/>
    <path d="M20,42 L40,42" stroke="#FF0000" stroke-width="3" stroke-linecap="round"/>
  </g>
</svg>
