<svg width="129" height="32" viewBox="0 0 129 32" fill="none" xmlns="http://www.w3.org/2000/svg">
<path d="M19.4441 6.43151C19.4441 2.14428 16.2034 0.000665411 9.72214 0.000665411H0.000230752V3.2159H9.72214C14.0429 3.2159 16.2033 4.28777 16.2033 6.43151C16.2033 8.57525 14.0429 9.64712 9.72214 9.64712H0.000230752V12.8627H9.72214C14.0429 12.8627 16.2033 13.9345 16.2033 16.078V19.2936H19.4441V16.078C19.4441 13.9345 18.6339 12.3268 17.0135 11.2549C18.6339 10.1833 19.4441 8.57551 19.4441 6.43151Z" fill="white" style="fill:white;fill-opacity:1;"/>
<path d="M26.0032 9.64678C26.0032 16.0778 29.2438 19.2932 35.7251 19.2932H38.9659V16.0776H35.7251C31.4043 16.0776 29.244 13.934 29.244 9.64678C29.244 5.35955 31.4043 3.21593 35.7251 3.21593H42.2062V19.2932H45.447V0.00032197H35.7251C29.2438 0.00032197 26.0032 3.21581 26.0032 9.64678Z" fill="white" style="fill:white;fill-opacity:1;"/>
<path d="M73.7534 0.70367C73.7534 0.31521 74.0707 0.000302223 74.4622 0.000302223H76.8251C77.2166 0.000302223 77.534 0.315211 77.534 0.70367V18.5898C77.534 18.9783 77.2166 19.2932 76.8251 19.2932H74.4622C74.0707 19.2932 73.7534 18.9783 73.7534 18.5898V0.70367Z" fill="white" style="fill:white;fill-opacity:1;"/>
<path d="M102.997 9.64678V0.00032197H99.7562V9.64678C99.7562 13.934 97.5958 16.0776 93.2751 16.0776C88.954 16.0776 86.7935 13.934 86.7935 9.64678V0.00032197H83.5532V9.64678C83.5532 16.0778 86.7938 19.2932 93.2751 19.2932C99.7563 19.2932 102.997 16.0778 102.997 9.64678Z" fill="white" style="fill:white;fill-opacity:1;"/>
<path d="M119.278 3.21593H129V0.00032197H119.278C112.797 0.00032197 109.556 2.14406 109.556 6.43154V9.64678H119.278C123.599 9.64678 125.759 10.7187 125.759 12.8624C125.759 15.0061 123.599 16.0779 119.278 16.0776H109.556V19.2932H119.278C125.759 19.2932 129 17.1496 129 12.8624C129 8.57516 125.759 6.43154 119.278 6.43154H112.797C112.797 4.2878 114.957 3.21593 119.278 3.21593Z" fill="white" style="fill:white;fill-opacity:1;"/>
<path d="M58.944 0.111789C58.4657 0.0363877 57.9731 0 57.4729 0C56.9726 0 56.4823 0.0363877 56.0019 0.109163V7.93024C55.5119 8.34363 55.2 8.95885 55.2 9.64721C55.2 10.8919 56.217 11.901 57.4718 11.901C58.7262 11.901 59.7432 10.8919 59.7432 9.64721C59.7432 8.96035 59.4324 8.34588 58.944 7.93249V3.37166C61.8199 4.03114 63.965 6.59028 63.965 9.64796C63.965 13.2049 61.0573 16.0901 57.4729 16.0901C56.2128 16.0901 55.0359 15.7348 54.0405 15.117L51.7184 17.4206C53.3293 18.5982 55.3202 19.294 57.4729 19.294C62.8399 19.294 67.1941 14.9759 67.1941 9.64796C67.1941 4.81666 63.6146 0.814782 58.944 0.111789Z" fill="white" style="fill:white;fill-opacity:1;"/>
<path d="M15.6458 22.5689C15.4089 22.4813 15.1554 22.4622 14.8855 22.5115C14.6153 22.5607 14.381 22.7002 14.1827 22.9297L8.2486 29.72L2.31451 22.9297C2.1159 22.7002 1.88162 22.5607 1.61169 22.5115C1.34175 22.4622 1.08832 22.4813 0.851399 22.5689C0.614479 22.6564 0.413349 22.8094 0.248009 23.028C0.0826693 23.2468 0 23.5038 0 23.7989V31.7374H1.96707V25.4881L7.25693 31.5405C7.389 31.6938 7.54048 31.8086 7.71137 31.8848C7.882 31.9616 8.0583 32 8.24028 32C8.42225 32 8.60133 31.9616 8.77751 31.8848C8.95394 31.8086 9.10819 31.6938 9.24026 31.5405L14.5301 25.4881V31.7374H16.4972V23.7989C16.4972 23.5038 16.4145 23.2468 16.2492 23.028C16.0838 22.8094 15.8827 22.6564 15.6458 22.5689Z" fill="white" style="fill:white;fill-opacity:1;"/>
<path d="M27.6382 22.9868C27.2415 23.1563 26.8971 23.3887 26.605 23.6838C26.3129 23.9789 26.0815 24.3234 25.9109 24.7172C25.74 25.1109 25.6545 25.5319 25.6545 25.9803V28.506C25.6545 28.9542 25.74 29.3751 25.9109 29.7687C26.0815 30.1626 26.3129 30.5044 26.605 30.794C26.8971 31.0841 27.2415 31.3138 27.6382 31.4831C28.0347 31.6526 28.459 31.7373 28.9112 31.737H39.0936V29.7687H28.9112C28.5583 29.7687 28.258 29.6458 28.0102 29.4C27.7622 29.1539 27.6382 28.8559 27.6382 28.506V28.2273H38.4818V26.2425H27.6382V25.9803C27.6382 25.6302 27.7622 25.3322 28.0102 25.0864C28.2577 24.8403 28.5581 24.7172 28.9112 24.7172H39.0936V22.7489L28.9112 22.7324C28.459 22.7324 28.0347 22.8172 27.6382 22.9868Z" fill="white" style="fill:white;fill-opacity:1;"/>
<path d="M47.9867 24.7172H52.7639V31.737H54.9457V24.7172H59.7229V22.7489H47.9867V24.7172Z" fill="white" style="fill:white;fill-opacity:1;"/>
<path d="M80.0215 26.3082H70.7646V22.7489H68.7809V31.737H70.7646V28.2765H80.0215V31.737H82.0214V22.7489H80.0215V26.3082Z" fill="white" style="fill:white;fill-opacity:1;"/>
<path d="M104.734 28.2269C104.602 28.5331 104.42 28.8009 104.189 29.0305C103.957 29.2601 103.687 29.4405 103.379 29.5718C103.07 29.7031 102.739 29.7687 102.387 29.7687H95.6263C95.2735 29.7687 94.9428 29.7031 94.6343 29.5718C94.3258 29.4405 94.0558 29.2601 93.8245 29.0305C93.5931 28.8009 93.4113 28.5331 93.2789 28.2269C93.1466 27.9208 93.0804 27.5929 93.0804 27.243C93.0804 26.8929 93.1466 26.5648 93.2789 26.2586C93.4113 25.9525 93.5931 25.6847 93.8245 25.4551C94.0558 25.2255 94.3258 25.0451 94.6343 24.9138C94.9428 24.7825 95.2735 24.7169 95.6263 24.7169H102.387C102.739 24.7169 103.07 24.7825 103.379 24.9138C103.687 25.0451 103.957 25.2255 104.189 25.4551C104.42 25.6847 104.602 25.9525 104.734 26.2586C104.867 26.5648 104.933 26.8929 104.933 27.243C104.933 27.5931 104.867 27.9211 104.734 28.2269ZM105.602 24.0608C105.189 23.6564 104.707 23.3366 104.156 23.1016C103.605 22.8665 103.015 22.7488 102.387 22.7486H95.6263C94.998 22.7486 94.4111 22.8662 93.8657 23.1016C93.32 23.3366 92.8406 23.6564 92.4275 24.0608C92.0142 24.4657 91.6892 24.9413 91.4525 25.4878C91.2156 26.0347 91.0971 26.6198 91.0971 27.243C91.0971 27.8662 91.2156 28.4484 91.4525 28.9896C91.6894 29.5308 92.0144 30.0064 92.4275 30.4166C92.8409 30.8267 93.3203 31.1492 93.8657 31.384C94.4111 31.6196 94.998 31.7373 95.6263 31.737H102.387C103.015 31.737 103.605 31.6194 104.156 31.384C104.707 31.149 105.189 30.8265 105.602 30.4166C106.015 30.0064 106.34 29.5308 106.577 28.9896C106.814 28.4482 106.933 27.866 106.933 27.243C106.933 26.6195 106.814 26.0344 106.577 25.4878C106.34 24.9413 106.015 24.4657 105.602 24.0608Z" fill="white" style="fill:white;fill-opacity:1;"/>
<path d="M127.016 28.5057C127.016 28.8558 126.892 29.1538 126.644 29.3996C126.396 29.6457 126.096 29.7687 125.743 29.7687H117.545V24.7169H125.743C126.096 24.7169 126.397 24.8399 126.644 25.086C126.892 25.3321 127.016 25.6301 127.016 25.9799V28.5057ZM128.05 23.6838C127.757 23.3887 127.413 23.1562 127.016 22.9864C126.62 22.8171 126.195 22.7324 125.743 22.7324L115.561 22.7486V31.737H125.743C126.195 31.737 126.62 31.6523 127.016 31.4827C127.413 31.3131 127.757 31.0836 128.05 30.794C128.341 30.5041 128.573 30.1624 128.744 29.7687C128.915 29.3751 129 28.9541 129 28.5057V25.9799C129 25.5315 128.915 25.1105 128.744 24.7169C128.573 24.3235 128.341 23.9791 128.05 23.6838Z" fill="white" style="fill:white;fill-opacity:1;"/>
</svg>
